<svg width="25" height="34" viewBox="0 0 25 34" fill="none" xmlns="http://www.w3.org/2000/svg">
<path d="M23.6964 26.3214H22.8125V13.7991C22.8125 8.60235 18.9711 4.30792 13.9732 3.59342V2.16071C13.9732 1.34676 13.314 0.6875 12.5 0.6875C11.686 0.6875 11.0268 1.34676 11.0268 2.16071V3.59342C6.02891 4.30792 2.1875 8.60235 2.1875 13.7991V26.3214H1.30357C0.651674 26.3214 0.125 26.8481 0.125 27.5V28.6786C0.125 28.8406 0.257589 28.9732 0.419643 28.9732H8.375C8.375 31.2493 10.2239 33.0982 12.5 33.0982C14.7761 33.0982 16.625 31.2493 16.625 28.9732H24.5804C24.7424 28.9732 24.875 28.8406 24.875 28.6786V27.5C24.875 26.8481 24.3483 26.3214 23.6964 26.3214ZM12.5 30.7411C11.524 30.7411 10.7321 29.9492 10.7321 28.9732H14.2679C14.2679 29.9492 13.476 30.7411 12.5 30.7411ZM4.83929 26.3214V13.7991C4.83929 11.7513 5.63482 9.8288 7.08225 8.38136C8.52969 6.93393 10.4522 6.13839 12.5 6.13839C14.5478 6.13839 16.4703 6.93393 17.9177 8.38136C19.3652 9.8288 20.1607 11.7513 20.1607 13.7991V26.3214H4.83929Z" fill="#051821"/>
</svg>
